<?xml version="1.0" encoding="UTF-8" standalone="no"?>
<svg
   xmlns:dc="http://purl.org/dc/elements/1.1/"
   xmlns:cc="http://creativecommons.org/ns#"
   xmlns:rdf="http://www.w3.org/1999/02/22-rdf-syntax-ns#"
   xmlns:svg="http://www.w3.org/2000/svg"
   xmlns="http://www.w3.org/2000/svg"
   xmlns:sodipodi="http://sodipodi.sourceforge.net/DTD/sodipodi-0.dtd"
   xmlns:inkscape="http://www.inkscape.org/namespaces/inkscape"
   width="70mm"
   height="129.35545mm"
   viewBox="0 0 69.999999 129.35545"
   version="1.1"
   id="svg2266"
   inkscape:version="1.0.1 (3bc2e813f5, 2020-09-07)"
   sodipodi:docname="Plane-view-zoom.svg">
  <defs
     id="defs2260" />
  <sodipodi:namedview
     id="base"
     pagecolor="#ffffff"
     bordercolor="#666666"
     borderopacity="1.0"
     inkscape:pageopacity="0.0"
     inkscape:pageshadow="2"
     inkscape:zoom="0.49497475"
     inkscape:cx="647.53463"
     inkscape:cy="469.53275"
     inkscape:document-units="mm"
     inkscape:current-layer="layer1"
     inkscape:document-rotation="0"
     showgrid="false"
     inkscape:window-width="1366"
     inkscape:window-height="705"
     inkscape:window-x="2552"
     inkscape:window-y="-8"
     inkscape:window-maximized="1"
     fit-margin-top="0"
     fit-margin-left="0"
     fit-margin-right="0"
     fit-margin-bottom="0" />
  <metadata
     id="metadata2263">
    <rdf:RDF>
      <cc:Work
         rdf:about="">
        <dc:format>image/svg+xml</dc:format>
        <dc:type
           rdf:resource="http://purl.org/dc/dcmitype/StillImage" />
        <dc:title></dc:title>
      </cc:Work>
    </rdf:RDF>
  </metadata>
  <g
     inkscape:label="Warstwa 1"
     inkscape:groupmode="layer"
     id="layer1"
     transform="translate(-211.78745,-33.936916)">
    <path
       id="path21"
       style="fill:#000000;fill-opacity:0.168675;stroke:#000000;stroke-width:1.96827;stroke-opacity:1"
       d="M 132.49414 2.4199219 C 117.13766 2.8496995 101.22554 27.074884 92.746094 62.933594 C 89.491732 76.696003 88.357501 94.563895 88.441406 130.74414 C 88.504146 157.76206 88.096643 180.29912 87.535156 180.82812 C 86.973707 181.35719 76.224223 186.92498 63.646484 193.19922 L 40.777344 204.60547 L 36.841797 199.54297 C 33.536562 195.29058 31.091304 194.39411 21.548828 193.9375 C 6.5758895 193.22105 2.381773 197.02019 2.5488281 211.15039 C 2.6120628 216.50452 1.7435694 221.07205 0.25195312 223.59766 L 0.25195312 294.95312 C 39.896107 284.73398 47.895124 283.61979 65.457031 283.55078 C 77.726814 283.50248 88.33181 283.98969 89.025391 284.63281 C 89.71901 285.2759 90.803837 298.14504 91.435547 313.23242 C 92.429033 336.96007 95.205498 372.1228 98.095703 397.57422 L 98.947266 405.06445 L 69.529297 427.37305 C 24.431898 461.57263 24.98213 460.97949 25.572266 474.72461 C 25.844316 481.06133 26.606803 486.74671 27.267578 487.35938 C 30.871698 490.70112 41.311533 488.68026 75.330078 478.05469 L 112.95898 466.30273 L 120.66602 474.35156 C 127.67651 481.67387 128.92459 482.2957 134.48828 481.22852 C 138.66307 480.42775 142.6467 477.8784 147.03711 473.19727 L 153.46875 466.33789 L 191.07422 478.16016 C 211.757 484.66196 230.75771 489.68472 233.29688 489.32227 C 239.9044 488.37905 240.26452 487.69185 240.83984 474.91992 C 241.28825 464.96548 240.57258 462.66993 235.57812 458.03906 C 230.0356 452.9 182.89883 416.00677 172.30273 408.51367 C 167.51305 405.12665 167.39094 403.21909 170.33984 377.89062 C 172.06943 363.03512 174.21031 336.21695 175.0957 318.29492 C 175.9811 300.37286 177.23239 285.2223 177.87695 284.62695 C 178.52155 284.03168 189.08779 283.60353 201.35742 283.67383 C 218.8531 283.77433 226.89155 284.90304 266.12695 295.08594 L 266.12695 220.56641 C 265.62473 218.3096 265.28421 215.46711 265.14062 212.05664 C 264.53677 197.71056 260.88604 194.33392 245.97656 194.32031 C 235.75751 194.31108 233.87081 194.94967 230.19141 199.66406 C 226.9409 203.82888 225.31848 204.66088 222.89062 203.4082 C 221.17374 202.52237 211.19476 197.5446 200.71484 192.34766 C 190.23489 187.15071 180.97001 182.26021 180.12695 181.47852 C 179.28389 180.69681 178.63692 157.95315 178.68945 130.9375 C 178.78802 80.398697 176.7448 63.971419 167.30664 39.429688 C 157.81182 14.740672 145.87117 2.0455597 132.49414 2.4199219 z "
       transform="matrix(0.26458333,0,0,0.26458333,211.78745,33.936916)" />
  </g>
</svg>
