<?xml version="1.0" encoding="UTF-8" standalone="no"?>
<svg
   xmlns:dc="http://purl.org/dc/elements/1.1/"
   xmlns:cc="http://creativecommons.org/ns#"
   xmlns:rdf="http://www.w3.org/1999/02/22-rdf-syntax-ns#"
   xmlns:svg="http://www.w3.org/2000/svg"
   xmlns="http://www.w3.org/2000/svg"
   xmlns:sodipodi="http://sodipodi.sourceforge.net/DTD/sodipodi-0.dtd"
   xmlns:inkscape="http://www.inkscape.org/namespaces/inkscape"
   width="124.11106mm"
   height="129.35545mm"
   viewBox="0 0 124.11106 129.35545"
   version="1.1"
   id="svg2266"
   inkscape:version="1.0.1 (3bc2e813f5, 2020-09-07)"
   sodipodi:docname="Plane-view.svg">
  <defs
     id="defs2260" />
  <sodipodi:namedview
     id="base"
     pagecolor="#ffffff"
     bordercolor="#666666"
     borderopacity="1.0"
     inkscape:pageopacity="0.0"
     inkscape:pageshadow="2"
     inkscape:zoom="0.7"
     inkscape:cx="373.87306"
     inkscape:cy="260.43191"
     inkscape:document-units="mm"
     inkscape:current-layer="layer1"
     inkscape:document-rotation="0"
     showgrid="false"
     inkscape:window-width="1366"
     inkscape:window-height="705"
     inkscape:window-x="2552"
     inkscape:window-y="-8"
     inkscape:window-maximized="1"
     fit-margin-top="0"
     fit-margin-left="0"
     fit-margin-right="0"
     fit-margin-bottom="0" />
  <metadata
     id="metadata2263">
    <rdf:RDF>
      <cc:Work
         rdf:about="">
        <dc:format>image/svg+xml</dc:format>
        <dc:type
           rdf:resource="http://purl.org/dc/dcmitype/StillImage" />
        <dc:title></dc:title>
      </cc:Work>
    </rdf:RDF>
  </metadata>
  <g
     inkscape:label="Warstwa 1"
     inkscape:groupmode="layer"
     id="layer1"
     transform="translate(-211.78745,-33.936916)">
    <path
       style="fill:#000000;fill-opacity:0.168675;stroke:#000000;stroke-width:0.520771;stroke-opacity:1"
       d="m 300.27443,163.02548 c -0.67182,0.0959 -5.69884,-1.23313 -11.17116,-2.9534 l -9.94966,-3.12777 -1.70184,1.81451 c -1.16163,1.23855 -2.2155,1.91305 -3.32008,2.12492 -1.47206,0.28236 -1.80245,0.11801 -3.65731,-1.81935 l -2.03907,-2.12976 -9.95624,3.10981 c -9.00074,2.81135 -11.76276,3.34609 -12.71635,2.46192 -0.17483,-0.1621 -0.37677,-1.66649 -0.44875,-3.34308 -0.15614,-3.63673 -0.3017,-3.47993 11.63032,-12.52857 l 7.78358,-5.90266 -0.22502,-1.98156 c -0.7647,-6.73402 -1.49938,-16.03741 -1.76224,-22.31535 -0.16714,-3.99187 -0.45403,-7.39716 -0.63755,-7.56731 -0.18351,-0.17016 -2.98978,-0.29891 -6.23616,-0.28613 -5.42098,0.0213 -7.31259,0.39354 -23.18759,4.56234 -9.50681,2.4965 -17.77702,4.48189 -18.37825,4.41198 -0.60123,-0.0699 -1.33329,-0.34976 -1.62679,-0.6219 -0.68173,-0.6321 -0.87599,-9.08757 -0.23503,-10.22957 0.26603,-0.47398 3.50182,-2.35559 7.19064,-4.18135 3.68882,-1.82576 6.91484,-3.51158 7.16894,-3.746261 0.25409,-0.234681 0.52187,-1.756013 0.59506,-3.380739 0.0732,-1.624725 0.41825,-3.217436 0.7668,-3.539357 0.34855,-0.321921 2.16933,-0.583925 4.04618,-0.582231 2.99731,0.0027 3.52285,0.163106 4.31999,1.31849 0.81254,1.177716 1.00286,1.227373 1.81815,0.474382 0.55749,-0.514893 0.89778,-1.927048 0.87753,-3.64163 -0.0442,-3.738616 1.06526,-4.743696 5.02685,-4.554136 2.52478,0.120811 3.17216,0.35809 4.04667,1.483201 l 1.04106,1.339386 6.05064,-3.018286 c 3.32786,-1.660058 6.17219,-3.132821 6.32074,-3.272804 0.14856,-0.139967 0.2565,-6.103274 0.2399,-13.251766 -0.0222,-9.57269 0.27784,-14.299901 1.13889,-17.941205 2.24352,-9.487617 6.45357,-15.897121 10.51664,-16.010833 3.53934,-0.09905 6.69866,3.259554 9.21083,9.791856 2.49718,6.493333 3.03786,10.83985 3.01178,24.211575 -0.0139,7.147891 0.15717,13.165383 0.38023,13.372208 0.22306,0.206824 2.67423,1.501066 5.44705,2.876091 2.77281,1.375025 5.41313,2.691807 5.86739,2.926184 0.64237,0.331438 1.07165,0.111288 1.93168,-0.990652 0.97351,-1.247351 1.47302,-1.41646 4.17681,-1.414016 3.9448,0.0036 4.91038,0.897312 5.07015,4.693046 0.15537,3.690316 1.17161,4.908775 2.49779,2.994814 0.79957,-1.153939 1.32545,-1.313393 4.32276,-1.310687 1.87685,0.0017 3.69707,0.266986 4.04494,0.589533 0.34788,0.32255 0.68958,1.915883 0.75934,3.540735 0.0698,1.624855 0.33434,3.146668 0.58794,3.381807 0.2536,0.235138 3.47606,1.926775 7.16103,3.759195 3.68496,1.83242 6.91677,3.71986 7.1818,4.19433 0.63858,1.14314 0.42649,9.59823 -0.25657,10.2291 -0.29408,0.27161 -1.02672,0.55014 -1.6281,0.61897 -0.60138,0.0688 -8.86738,-1.9315 -18.36891,-4.44516 -15.86618,-4.19745 -17.75701,-4.57305 -23.17793,-4.60419 -3.24634,-0.0186 -6.04198,0.095 -6.21253,0.2525 -0.17054,0.15752 -0.50175,4.1661 -0.73601,8.90798 -0.23426,4.74187 -0.80035,11.83746 -1.25797,15.76798 -0.78023,6.70149 -0.7479,7.2059 0.51937,8.10205 2.80355,1.98255 15.27494,11.74423 16.7414,13.10394 1.32145,1.22525 1.51066,1.83231 1.39202,4.46609 -0.15222,3.37924 -0.24754,3.56123 -1.99578,3.81079 z"
       id="path21" />
  </g>
</svg>
